# xmcd CD database file
#
# Track frame offsets:
#	150
#	19720
#	29002
#	39431
#	59239
#	74032
#	96848
#	112386
#	129010
#	143592
#	158049
#	173256
#	186574
#	200217
#	216556
#
# Disc length: 3027 seconds
#
# Revision: 0
# Processed by: cddbd v1.4PL0 Copyright (c) Steve Scherf et al.
# Submitted via: CDex 1.51
#
DISCID=ea0bd10f
DTITLE=Varios - Great Melodies if The Century Vol. II
DYEAR=2001
DGENRE=Blues
TTITLE0=Reflections of my Life
TTITLE1=Gabriella
TTITLE2=Sleep Walker
TTITLE3=The House of The Rising SUn
TTITLE4=Young Girl
TTITLE5=Penelope
TTITLE6=The Sea
TTITLE7=Death Leaves
TTITLE8=Flowers in Your Hair
TTITLE9=Born Free
TTITLE10=The Sounds of Silence
TTITLE11=Emmanuelle
TTITLE12=Impossible Dream
TTITLE13=Sunny
TTITLE14=Theme of a Summer Place
EXTD=YEAR: 2001
EXTT0=
EXTT1=
EXTT2=
EXTT3=
EXTT4=
EXTT5=
EXTT6=
EXTT7=
EXTT8=
EXTT9=
EXTT10=
EXTT11=
EXTT12=
EXTT13=
EXTT14=
PLAYORDER=
